
<svg xmlns="http://www.w3.org/2000/svg" viewBox="0 0 370.82 74.38">
  <defs>
    <style>
      .cls-1 {
        fill: #FFF;
      }
    </style>
  </defs>
  <title>site-logo</title>
  <g id="Layer_2" data-name="Layer 2">
    <g id="Layer_1-2" data-name="Layer 1">
      <g>
        <path class="cls-1" d="M106.32,51.32c-1.06,3.07-3.36,4.64-5.54,6.26C95.8,61.27,91.94,60.72,88,56a2,2,0,0,0-1.91-.21,9.25,9.25,0,0,0-2.58,2.06,5.64,5.64,0,0,1-6.69,1.6,5.73,5.73,0,0,1-3.89-6,58.28,58.28,0,0,1,2.24-9.81c.86-3,2.18-5.77,3-8.73a17.18,17.18,0,0,0,.46-5.14c0-1.65-1.28-2.4-2.61-1.48s-3.15,2.27-3.59,3.77c-2.4,8.25-4.53,16.58-6.56,24.92-.53,2.18-2,2.09-3.54,2.35-5.17.86-6.38-.49-4.92-5.37q4.69-15.78,9.29-31.59A36,36,0,0,0,68,14.87a6.26,6.26,0,0,0-.71.94c-.89,1.78-2,1.82-3.61.77a33.54,33.54,0,0,0-6.29-3.15c-1.88-.7-3,.11-3.45,2.29Q51.5,27.56,48.7,39.32c-1.21,5.07-2.51,10.13-4.12,15.08a18,18,0,0,1-8.1,10.17c-3.44,2-9.64,1.21-12.84-1.75a23.62,23.62,0,0,1-2.92-3.1c-2.48-3.31-2.45-4.82.18-8,.52-.63,1.79-1.38,2.23-1.15a3.23,3.23,0,0,1,1.49,2.33,10.73,10.73,0,0,0,2.24,6.33c2.34,3.06,4.52,3.14,7.23.39,3.25-3.3,3.48-7.66,4.44-11.78Q42.22,32,45.88,16.22c.13-.54.31-1.06.41-1.6.5-2.71.08-3.21-2.72-3.23-2.3,0-4.6-.11-6.88,0C32.76,11.69,28,14,27.44,18.5c-.44,3.57-1.21,7.14-1.25,10.72,0,2.68,1.82,4.12,3.59,3.69a4.65,4.65,0,0,0,3.41-5.31,5.34,5.34,0,0,1,.35-3.18,3.12,3.12,0,0,1,2.33-1.59,3.66,3.66,0,0,1,2.28,2c2.11,4.65-2.46,9.87-7.52,10.57-8.29,1.14-13.91-5.71-11.27-13.77,2.11-6.43,7.1-10.07,13-12.17a43.84,43.84,0,0,1,11.8-2,92.69,92.69,0,0,1,14,.24c2.91.26,5.72,1.48,8.61,2.14A8.23,8.23,0,0,0,70,9.85a19.06,19.06,0,0,0,2.36-1.07c2.79-.91,4.81.34,4.5,3.22-.43,4-1.41,7.89-2.17,11.84-.11.59-.29,1.16-.39,1.57,2.56-.28,5-.63,7.42-.81,3.93-.29,5.93,2.74,5.1,6.72-1.13,5.47-2.92,10.8-4.43,16.18a22.61,22.61,0,0,0-.87,3.19c-.18,1.45-.12,3.06,1.82,3.24a2.61,2.61,0,0,0,3.07-2.56,92,92,0,0,1,1.78-11.16c2.31-8.54,7.79-14,16.72-15.39,2.25-.35,4.71,0,6.23,2.08s1.23,4.12.25,6.31C108.75,39.06,103.85,42,98,43.64c-2.39.67-3.18,2.06-3,4.33.06,1,0,2.06,0,3.09,0,1.77.69,3.4,2.37,3.65a8.4,8.4,0,0,0,4.32-1C103.14,53,103.65,50.68,106.32,51.32Zm-1-21c-.17-.32-.36-1.22-.89-1.51a2.09,2.09,0,0,0-1.87.48c-3,2.91-4.48,6.62-5.5,10.55a1.57,1.57,0,0,0,.44,1.4A1.76,1.76,0,0,0,99,40.94,14.71,14.71,0,0,0,105.33,30.33Z"/>
        <path class="cls-1" d="M214.64,19.69a48.43,48.43,0,0,1,6.26.08c.88.12,1.64,1.09,2.46,1.67a8.61,8.61,0,0,1-2.55,1.28,39.67,39.67,0,0,1-5.21.09,3.28,3.28,0,0,0-3.36,2.48c-2.44,7.18-4.9,14.35-7.24,21.57a11.72,11.72,0,0,0-.51,4.41c.15,2,1.18,2.29,2.64,1a16.68,16.68,0,0,0,5.61-9,32.74,32.74,0,0,1,4.91-10.62c3.34-4.79,8.37-6.82,14.27-6.29,3.69.33,5.76,3.8,4.18,7.57a17.91,17.91,0,0,1-11.55,10.79c-5.24,1.58-6.15,2.93-5.06,8.31a3.51,3.51,0,0,0,5,2.67,21,21,0,0,0,3.38-2.52c.82-.63,1.62-1.29,2.43-1.94l.63.37c-.07.7.12,1.62-.25,2.07-2.88,3.44-5.58,7.15-10.84,7.09-4.1-.05-6.54-1.75-7.77-5.83-.25-.83-.38-1.69-.67-3a33.52,33.52,0,0,1-2.2,2.61c-2,1.89-3.79,4.06-6.07,5.48-3.18,2-6.08.41-7-3.21a12.08,12.08,0,0,0-1.2-2.43,20.23,20.23,0,0,0-2.58,1.44,62.2,62.2,0,0,1-5.15,4.09c-2.69,1.61-4.45,1.05-6.27-1.49-2.13-3-2.13-3-5-.55-4.45,3.85-10.11,3.21-11.88-1.35a16.5,16.5,0,0,1-.5-9.8A35.38,35.38,0,0,1,170,33.59c3-4.09,7.25-6.28,11.9-7.78,1.15-.37,2.82-.58,3.7,0,2.55,1.63,5.17.67,7.75.76s3.09,1,2.22,3.31C193.32,36,191,42.14,188.76,48.3c-.62,1.7-1.28,3.57.26,5.1.88.87,4.22-.4,5.21-2.34A82.73,82.73,0,0,0,198,41.9c1.85-5,3.59-10.1,5.36-15.16.18-.52.3-1.07.48-1.59.58-1.63.06-2.39-1.71-2.39a10.52,10.52,0,0,1-3.27-.31c-.6-.2-1-1.07-1.46-1.64.59-.4,1.15-1.08,1.78-1.15a26.67,26.67,0,0,1,4.5-.08c1.81.08,2.72-.68,3.14-2.47.8-3.42,5.18-5.4,8.21-3.58.64.39.69,2,.7,3.11C215.7,17.43,215.18,18.22,214.64,19.69ZM172.07,50c-.09,3.08,1.53,4.75,3.82,3.82a9.52,9.52,0,0,0,4.29-3.92,57.49,57.49,0,0,0,3.7-8.7c1.15-3.1,2.19-6.25,3.06-9.43a2.81,2.81,0,0,0-.8-2.48,2.73,2.73,0,0,0-2.51.35,33.69,33.69,0,0,0-4.74,4.53A31.81,31.81,0,0,0,172.07,50Zm48.82-7.25a11,11,0,0,0,2.64-.78c3.47-2.23,5.2-5.65,6-9.56a4.86,4.86,0,0,0-.72-2.56,2.25,2.25,0,0,0-1.56.38C224.53,33.92,222.08,37.74,220.89,42.77Z"/>
        <path class="cls-1" d="M336.1,57.59c-7.4,6-9.48,5.75-12.87-1.75-.5.4-1,.75-1.42,1.15s-1.07,1.18-1.68,1.67c-4.84,3.89-8.09,4.61-11.53-2.33-.86.73-1.63,1.42-2.43,2.06-2.14,1.7-4.14,3.8-7.31,2.81a6.18,6.18,0,0,1-4.22-6.54,39.58,39.58,0,0,1,1.72-6.11c1.28-3.64,2.79-7.21,4-10.87.59-1.77,1.63-3.93-1.4-4.83a2.44,2.44,0,0,1,.09-1.87,44.2,44.2,0,0,1,5.48-4.14c1.64-1,3.36-.6,4.84.62a4.42,4.42,0,0,1,1.7,5c-1.48,4.24-3.2,8.4-4.84,12.59-.66,1.69-1.49,3.32-2,5-.49,1.54-.76,3.5,1,4.1.81.27,2.76-.93,3.23-1.92,2.09-4.41,4-8.93,5.65-13.52a86.37,86.37,0,0,0,2.24-8.95,3.2,3.2,0,0,1,.12-.46c.43-1,6.35-2.06,7.63-.89.71.64.81,2.59.42,3.68-1.67,4.68-3.75,9.22-5.4,13.91a18.9,18.9,0,0,0-.83,6c0,2.14,1.5,2.88,3.16,1.52a11.55,11.55,0,0,0,3.24-4c2-4.39,3.68-8.9,5.42-13.4.48-1.25.56-2.48-1.29-2.91-1.32-.31-1.74-1.33-.63-2.24,2.48-2,4.87-4.33,8.53-4,2.08.21,3.59,1.32,3.22,3.27A66.39,66.39,0,0,1,337,40.55c-1.2,3.33-2.83,6.51-4.14,9.81-.58,1.45-.73,3.1,1,3.92s2.75-.56,3.36-1.8a100.06,100.06,0,0,0,4.39-10c1.57-4.36,2.71-8.88,4.22-13.26A3.27,3.27,0,0,1,348,27.36c6.18-.62,6.62.05,4.55,5.84-2.93,8.18-5.69,16.42-8.68,24.58-2,5.59-5.16,10.51-10.26,13.88-4.11,2.71-10,2.39-13-.55A5.61,5.61,0,0,1,319,65.47a2.83,2.83,0,0,1,1.73-1.87c.71-.12,1.68.57,2.34,1.13a3.64,3.64,0,0,1,.69,1.74c.78,2.81,2.45,3.59,5.08,2.25a5,5,0,0,0,1.88-1.4c2.1-3.08,4.1-6.22,6.13-9.35Z"/>
        <path class="cls-1" d="M163,21.63c-.81-2.92-1.64-5.84-2.42-8.77-.13-.5-.29-1.37-.06-1.52a19.15,19.15,0,0,1,4.75-2.74,3.14,3.14,0,0,1,4,2.18c.77,2.76,1.94,5.81,1.44,8.46-1.61,8.6-3.7,17.13-7.92,25a39.47,39.47,0,0,1-13.36,14.45c-3.76,2.47-10.6,2-13.28-2.95-1.35-2.51-1.91-2.41-3.65-.15-3.07,4-8,5.59-11.38,3.71-3.26-1.79-4.7-5.91-3.16-10.71,1.64-5.1,3.74-10.06,5.67-15.06s3.9-9.67,5.66-14.56a11.32,11.32,0,0,0,.37-4.45c-.12-1.8-1.22-2.45-3-1.83a7.09,7.09,0,0,0-4,9.79,3.05,3.05,0,0,1-.06,2.7,3.84,3.84,0,0,1-3,1.1c-.74-.17-1.6-1.54-1.73-2.47-1-7.29,5.36-14.19,13.27-14.53a20.38,20.38,0,0,0,2.13,0c4.81-.72,6.23,3.48,5,6.72-3.44,9-7,18-10.32,27a28.05,28.05,0,0,0-1.52,7.61c-.19,2.73,1.86,4.12,4.19,2.68a13.23,13.23,0,0,0,4.72-5c4.14-8.23,6.66-17.06,8.84-26,.51-2.07.83-4.18,1.27-6.27.39-1.86,1.4-2.94,3.47-2.74.78.08,1.58,0,2.37,0,3.52,0,4.35,1.15,3.14,4.55-1.46,4.1-3.17,8.1-4.52,12.23-1.83,5.55-3.56,11.14-5,16.78a22,22,0,0,0-.38,6.6c.14,2.89,2.12,4.06,4.43,2.38s4.83-3.64,6-6.08c4.27-8.77,7.69-17.88,7.49-27.9Z"/>
        <path class="cls-1" d="M292.79,29.56c.25-2.17.62-4.1.64-6,0-2.49.47-5.51-2.47-6.6-2.6-1-4.72.68-6.66,2.52-6.49,6.14-9.47,14.08-11.5,22.44a35.74,35.74,0,0,0-.89,8.88c0,2.49,1.06,5.08,3.57,6s4.46-1.18,5.86-2.84c3.42-4,6-8.57,5.49-14.21,0-.32,0-.64-.07-.95-.59-3.62-.6-3.63,3.06-3.62,2.06,0,4.12-.06,6.17.06s2.4,1.21,1.67,2.93c-2.31,5.43-4.52,10.89-6.83,16.31-2.63,6.19-5.15,12.45-10.5,17-3.58,3-7.69,3.57-12,2.45a6.5,6.5,0,0,1-4.34-7.7,3.26,3.26,0,0,1,2.35-1.66c.5-.07,1.54,1.07,1.71,1.81.39,1.74.58,3.86,2.58,4a6.89,6.89,0,0,0,4.57-1.63,14.55,14.55,0,0,0,5.16-9c-2,.45-3.82.92-5.71,1.31-6.58,1.33-9.3-2.33-11-6.75a25.16,25.16,0,0,1-.38-16.08,43.61,43.61,0,0,1,13.45-21.63,20.76,20.76,0,0,1,16.57-5.44c6.2.65,11.6,10.33,7.72,17.05a3.13,3.13,0,0,1-2.12,1.32C296.93,29.68,295,29.56,292.79,29.56Z"/>
        <path class="cls-1" d="M238.51,28.42c5-4.6,7.92-3.41,9.85,3.94,1.71-1.67,3.21-3.19,4.77-4.64,2.9-2.69,6.69-1.61,7.77,2.17.75,2.63-2.27,7.16-5,6.88-1.45-.15-2.76-1.58-4.63-2.73a7.27,7.27,0,0,0-1.46,1.3c-5.06,6.68-9.07,13.85-10.58,22.24-.55,3.08-5.39,4.9-8,2.94-.5-.38-.56-1.89-.27-2.66,2.11-5.62,4.37-11.18,6.55-16.77.77-2,1.52-4,2.18-6C240.56,32.69,242.66,30.07,238.51,28.42Z"/>
        <path class="cls-1" d="M7.19,0c.43,2.93,1,5.83,1.24,8.74.19,2-2.18,4.37-4.13,4.42A4.51,4.51,0,0,1,0,8.69C-.12,5.27,4.38.07,7.19,0Z"/>
        <path class="cls-1" d="M16.83,0c.4,2.84.93,5.66,1.16,8.51a3.85,3.85,0,0,1-3.86,4.15c-2.62.11-3.85-1-4-3.77C9.77,4.56,13,.31,16.83,0Z"/>
        <path class="cls-1" d="M354.22,1c4,.31,8.59,6.52,6.53,10.69-.52,1.06-2.32,1.87-3.64,2.05a3.4,3.4,0,0,1-3.78-2.6,6.65,6.65,0,0,1-.15-2.56C353.47,6.11,353.86,3.6,354.22,1Z"/>
        <path class="cls-1" d="M363.83,1.27c4.47.76,8.36,7.17,6.53,10.89a4.14,4.14,0,0,1-3.16,1.91c-1.28,0-2.59-1-3.78-1.78a2,2,0,0,1-.47-1.54C363.2,7.59,363.53,4.43,363.83,1.27Z"/>
        <path class="cls-1" d="M354.49,50.91A5.65,5.65,0,0,1,360,56.52c-.06,2.46-3,5.27-5.51,5.2a5.63,5.63,0,0,1-5.28-5.56A5.4,5.4,0,0,1,354.49,50.91Zm2,7.08.92-.06c1-1.7.81-3.15-1.14-4.88Zm-5.37-.22.82-.08V54.35h-.66Zm2.2,1.78h2.9L354,57.19Z"/>
        <path class="cls-1" d="M356.49,58l-.22-4.93c2,1.73,2.17,3.18,1.14,4.88Z"/>
        <path class="cls-1" d="M351.12,57.78l.15-3.43h.66V57.7Z"/>
        <path class="cls-1" d="M353.32,59.56l.65-2.37,2.25,2.37Z"/>
      </g>
    </g>
  </g>
</svg>
